<mxfile host="app.diagrams.net" modified="2021-05-30T02:29:51.566Z" agent="5.0 (Macintosh; Intel Mac OS X 10_15_7) AppleWebKit/537.36 (KHTML, like Gecko) Chrome/91.0.4472.77 Safari/537.36" etag="PKttl8odreNxuWkx5brN" version="14.7.2" type="github">
  <diagram id="Bi-gjdyY0U7LMDahLdrq" name="第 1 页">
    <mxGraphModel dx="1126" dy="771" grid="1" gridSize="10" guides="1" tooltips="1" connect="1" arrows="1" fold="1" page="1" pageScale="1" pageWidth="827" pageHeight="1169" math="0" shadow="0">
      <root>
        <mxCell id="0" />
        <mxCell id="1" parent="0" />
        <mxCell id="veMKRvSVrepSbo2_GfH5-7" style="edgeStyle=orthogonalEdgeStyle;rounded=0;orthogonalLoop=1;jettySize=auto;html=1;entryX=0.5;entryY=0;entryDx=0;entryDy=0;dashed=1;" edge="1" parent="1" source="veMKRvSVrepSbo2_GfH5-1" target="veMKRvSVrepSbo2_GfH5-4">
          <mxGeometry relative="1" as="geometry" />
        </mxCell>
        <mxCell id="veMKRvSVrepSbo2_GfH5-8" style="edgeStyle=orthogonalEdgeStyle;rounded=0;orthogonalLoop=1;jettySize=auto;html=1;dashed=1;" edge="1" parent="1" source="veMKRvSVrepSbo2_GfH5-1" target="veMKRvSVrepSbo2_GfH5-5">
          <mxGeometry relative="1" as="geometry" />
        </mxCell>
        <mxCell id="veMKRvSVrepSbo2_GfH5-17" style="edgeStyle=orthogonalEdgeStyle;rounded=0;orthogonalLoop=1;jettySize=auto;html=1;entryX=0.371;entryY=1;entryDx=0;entryDy=0;entryPerimeter=0;dashed=1;" edge="1" parent="1" source="veMKRvSVrepSbo2_GfH5-1" target="veMKRvSVrepSbo2_GfH5-15">
          <mxGeometry relative="1" as="geometry" />
        </mxCell>
        <mxCell id="veMKRvSVrepSbo2_GfH5-1" value="海淀区" style="rounded=0;whiteSpace=wrap;html=1;" vertex="1" parent="1">
          <mxGeometry x="244" y="300" width="120" height="60" as="geometry" />
        </mxCell>
        <mxCell id="veMKRvSVrepSbo2_GfH5-2" value="重庆" style="rounded=0;whiteSpace=wrap;html=1;" vertex="1" parent="1">
          <mxGeometry x="574" y="300" width="120" height="60" as="geometry" />
        </mxCell>
        <mxCell id="veMKRvSVrepSbo2_GfH5-4" value="门店1" style="rounded=0;whiteSpace=wrap;html=1;" vertex="1" parent="1">
          <mxGeometry x="134" y="460" width="120" height="60" as="geometry" />
        </mxCell>
        <mxCell id="veMKRvSVrepSbo2_GfH5-5" value="门店2" style="rounded=0;whiteSpace=wrap;html=1;" vertex="1" parent="1">
          <mxGeometry x="364" y="460" width="120" height="60" as="geometry" />
        </mxCell>
        <mxCell id="veMKRvSVrepSbo2_GfH5-14" style="edgeStyle=orthogonalEdgeStyle;rounded=0;orthogonalLoop=1;jettySize=auto;html=1;entryX=0;entryY=0.5;entryDx=0;entryDy=0;dashed=1;" edge="1" parent="1" source="veMKRvSVrepSbo2_GfH5-10" target="veMKRvSVrepSbo2_GfH5-1">
          <mxGeometry relative="1" as="geometry" />
        </mxCell>
        <mxCell id="veMKRvSVrepSbo2_GfH5-10" value="&lt;span&gt;海淀区管理员&lt;/span&gt;" style="shape=umlActor;verticalLabelPosition=bottom;verticalAlign=top;html=1;outlineConnect=0;" vertex="1" parent="1">
          <mxGeometry x="60" y="300" width="30" height="60" as="geometry" />
        </mxCell>
        <mxCell id="veMKRvSVrepSbo2_GfH5-15" value="云HIS平台" style="rounded=0;whiteSpace=wrap;html=1;" vertex="1" parent="1">
          <mxGeometry x="62" y="130" width="650" height="60" as="geometry" />
        </mxCell>
      </root>
    </mxGraphModel>
  </diagram>
</mxfile>
